# xmcd
#
# Track frame offsets:
#	150
#	22706
#	37957
#	55472
#	82705
#	93830
#	112675
#	134567
#	160206
#	175908
#	191571
#	205917
#	223480
#	248034
#	263191
#
# Disc length: 3629 seconds
#
# Revision: 2
# Processed by: cddbd v1.5.1PL2 Copyright (c) Steve Scherf et al.
# Submitted via: audiograbber 1.83.01
#
DISCID=c40e2b0f
DTITLE=Spikedrivers - Ain't It Real
DYEAR=2005
DGENRE=Blues
TTITLE0=Devil's Breath
TTITLE1=Young and Stupid
TTITLE2=Scarecrow Eyes
TTITLE3=Mornin' Train
TTITLE4=Goodbye Mr Blues
TTITLE5=Angel of Blue
TTITLE6=Blues to the River
TTITLE7=Hold Me Still
TTITLE8=Gypsy WInd
TTITLE9=Wrong Way Henry
TTITLE10=Smoochin'
TTITLE11=Two Left Feet
TTITLE12=No Expectations
TTITLE13=Wear Out My Name
TTITLE14=Waterfall
EXTD=
EXTT0=
EXTT1=
EXTT2=
EXTT3=
EXTT4=
EXTT5=
EXTT6=
EXTT7=
EXTT8=
EXTT9=
EXTT10=
EXTT11=
EXTT12=
EXTT13=
EXTT14=
PLAYORDER=
